PathFileType	4	(X/Y/Z)	./resultDataOpenSim/trcMotMarkerGrf/sub10/qtm-04-07.trc
DataRate	CameraRate	NumFrames	NumMarkers	Units	OrigDataRate	OrigDataStartFrame	OrigNumFrames
250.000000	250.000000	8	24	m	250.000000	282	562
Frame#	Time	L.Toe.Tip			R.Toe.Tip			L.Ankle.Lat			R.Ankle.Lat			L.Ankle.Med			R.Ankle.Med			L.Heel			R.Heel			L.Knee.Lat			R.Knee.Lat			L.Knee.Med			R.Knee.Med			L.Thigh.Upper			R.Thigh.Upper			L.ASIS			R.ASIS			V.Sacral			L.Acromium			R.Acromium			C7			L.Elbow			R.Elbow			L.Wrist.Lat			R.Wrist.Lat
		X1	Y1	Z1	X2	Y2	Z2	X3	Y3	Z3	X4	Y4	Z4	X5	Y5	Z5	X6	Y6	Z6	X7	Y7	Z7	X8	Y8	Z8	X9	Y9	Z9	X10	Y10	Z10	X11	Y11	Z11	X12	Y12	Z12	X13	Y13	Z13	X14	Y14	Z14	X15	Y15	Z15	X16	Y16	Z16	X17	Y17	Z17	X18	Y18	Z18	X19	Y19	Z19	X20	Y20	Z20	X21	Y21	Z21	X22	Y22	Z22	X23	Y23	Z23	X24	Y24	Z24

282	1.124	0.015311766	-0.032765271	-0.11215798	0.28506226	0.082545895	0.11379432	-0.11029114	0.020785373	-0.15859158	0.1538646	0.12326344	0.078348068	-0.10753211	0.045853923	-0.079203966	0.21501476	0.13332979	0.012521969	-0.18047592	0.0068212178	-0.12133335	0.12762229	0.095414221	0.014408814	-0.0093814834	0.3991025	-0.18862645	0.27886911	0.49380005	0.1151204	-0.01658139	0.37676776	-0.06662464	0.32765865	0.50371445	-0.004962631	0.058662738	0.7918041	-0.24158268	0.058465172	0.82665147	0.14163703	0.12104871	0.90077576	-0.17692673	0.11615573	0.91573121	0.065154645	-0.095894525	0.92456197	-0.040403834	0.089644037	1.3770279	-0.2071559	0.034517255	1.3706715	0.111391	-0.016357882	1.4035586	-0.068273957	0.099955112	1.0312007	-0.29248214	-0.095622543	1.0502674	0.12741943	0.33106965	0.94094127	-0.25038439	-0.0710125	0.84133675	0.24984598
283	1.128	0.015253011	-0.032770943	-0.11221668	0.3040009	0.082032152	0.11391861	-0.11031074	0.020906318	-0.15855426	0.17177226	0.11945056	0.079426466	-0.1072827	0.046053894	-0.079055038	0.23219323	0.13115182	0.013202182	-0.18042274	0.0071719106	-0.12077344	0.14585626	0.090876415	0.015656335	-0.0094598751	0.39912835	-0.18836534	0.28578184	0.49441173	0.11470765	-0.015947331	0.37663217	-0.066578028	0.33352421	0.5051027	-0.0054408592	0.061382196	0.79141958	-0.24141094	0.063821549	0.82706198	0.14193929	0.12446421	0.90044193	-0.17719376	0.12127303	0.91585925	0.064867912	-0.091029251	0.92418786	-0.039299859	0.094489917	1.3766386	-0.20700777	0.039755468	1.3703604	0.11150081	-0.011015852	1.4032607	-0.068294073	0.10745485	1.0310511	-0.29260188	-0.092072498	1.0507633	0.12697321	0.33968106	0.94420438	-0.24839386	-0.069806514	0.84173091	0.24970505
284	1.132	0.015183229	-0.032771701	-0.11227755	0.32291871	0.081518753	0.11391305	-0.11031202	0.02100254	-0.15852939	0.18973502	0.11575024	0.080480812	-0.10707076	0.046241118	-0.078870611	0.24935405	0.12909917	0.013881044	-0.18035828	0.0075016575	-0.12013502	0.164132	0.086547418	0.016863526	-0.0095303628	0.39911085	-0.18807019	0.29259777	0.49481957	0.11431077	-0.015214999	0.37643233	-0.066545004	0.3392721	0.5062096	-0.0059075961	0.064175279	0.79095471	-0.24123961	0.069287455	0.82741917	0.14227166	0.12788475	0.90000224	-0.17742307	0.12640697	0.91595266	0.064567254	-0.086045796	0.92370412	-0.038352227	0.099356732	1.3761584	-0.20687474	0.045000136	1.3699437	0.11161226	-0.00563949	1.402787	-0.068513895	0.11501918	1.0308904	-0.29269775	-0.088527945	1.0511357	0.12647233	0.348243	0.94740375	-0.24638508	-0.068460579	0.8420603	0.24957926
285	1.136	0.015101084	-0.032773154	-0.11233075	0.34182644	0.080989786	0.11380629	-0.11037679	0.021110558	-0.1583983	0.20774757	0.11214721	0.081545454	-0.10685944	0.046412721	-0.078656513	0.26647176	0.12718848	0.014558829	-0.18031031	0.0078187597	-0.11949528	0.18242933	0.082443805	0.018029361	-0.0095803692	0.39905084	-0.1877439	0.29933383	0.49503781	0.11393221	-0.014340831	0.37617076	-0.066544933	0.34493216	0.50702803	-0.0063654767	0.067038789	0.79042306	-0.24107325	0.074876208	0.82772651	0.14263864	0.13130935	0.89946499	-0.17761114	0.1316165	0.91601564	0.064291599	-0.081089811	0.92309951	-0.037414688	0.10422834	1.3755954	-0.20674552	0.050257753	1.3694194	0.11172326	-0.0003129931	1.4021484	-0.068596548	0.12262741	1.0306792	-0.29269851	-0.08500814	1.0513933	0.1259446	0.35674717	0.95053705	-0.24437639	-0.067006497	0.84235214	0.24948105
286	1.14	0.01500989	-0.032779287	-0.11236833	0.36069432	0.080484339	0.11362893	-0.11050513	0.02122526	-0.15813622	0.22578164	0.10863946	0.082591175	-0.10662973	0.046570933	-0.078405493	0.28351951	0.1254286	0.015235432	-0.18030419	0.0081214559	-0.11893075	0.2007005	0.078578974	0.019176933	-0.0095972415	0.39894919	-0.18738941	0.30599835	0.49507275	0.11357622	-0.013287041	0.37585751	-0.066579981	0.35051692	0.5075511	-0.0068248181	0.069975139	0.78983055	-0.24091506	0.080530996	0.82795772	0.14301686	0.13475414	0.89884711	-0.17774857	0.1369652	0.91604826	0.064086545	-0.076199045	0.92238034	-0.036445847	0.10909274	1.3749472	-0.20661506	0.055539801	1.3687835	0.11182987	0.0049266866	1.401396	-0.068387616	0.13021808	1.0303543	-0.29261285	-0.081471246	1.0515564	0.12541551	0.36518778	0.95360064	-0.24237849	-0.065502253	0.84262312	0.24941603
287	1.144	0.01491321	-0.032789122	-0.11238851	0.37947381	0.080073193	0.11339445	-0.11065799	0.021330711	-0.15778182	0.24374747	0.10528053	0.083544073	-0.10637489	0.046720727	-0.078116316	0.3004666	0.12382491	0.015908605	-0.18034789	0.0083983442	-0.11847592	0.2188926	0.074955585	0.020321693	-0.0095682973	0.39880677	-0.18700963	0.31259352	0.49492237	0.11324728	-0.012055585	0.37550676	-0.06662478	0.35602969	0.50777856	-0.0072934991	0.072979632	0.78917965	-0.24077073	0.08620116	0.82808248	0.1433893	0.13825198	0.89817069	-0.17781097	0.14245356	0.91604587	0.06395623	-0.071361133	0.92158636	-0.035456905	0.11395541	1.3742037	-0.20648929	0.060859185	1.3680343	0.11192919	0.010111614	1.4005745	-0.067981366	0.1377354	1.0298819	-0.29249703	-0.07787592	1.0516415	0.12484829	0.37355753	0.95659089	-0.24039739	-0.063979622	0.84285555	0.24937346
288	1.148	0.014819476	-0.032799059	-0.11240144	0.39811817	0.079832924	0.1130909	-0.11080735	0.0214223	-0.15740345	0.26154147	0.10214922	0.084382009	-0.10610548	0.046854897	-0.077816551	0.31727905	0.12238822	0.016576331	-0.18042777	0.0086424299	-0.11810497	0.23696672	0.071563162	0.021452166	-0.0094808533	0.39862445	-0.18660749	0.31912109	0.49458419	0.11295141	-0.010686239	0.37512197	-0.066629447	0.36148509	0.50771507	-0.0077679783	0.076037047	0.78847642	-0.2406488	0.09186023	0.82808439	0.14374525	0.14180434	0.89743272	-0.17779322	0.1479994	0.91599679	0.06384768	-0.066566699	0.92080505	-0.034460764	0.11884101	1.3733564	-0.20638168	0.066229134	1.3671732	0.11201498	0.015298772	1.3996992	-0.067548786	0.14518103	1.0292716	-0.29236581	-0.074228648	1.0516524	0.12415705	0.38185184	0.9595057	-0.23843643	-0.062428731	0.84300618	0.24933185
289	1.152	0.014741117	-0.032810039	-0.11242126	0.41658873	0.079827455	0.11269329	-0.11094914	0.021503291	-0.15706908	0.27914943	0.099266139	0.085176112	-0.1058549	0.046947912	-0.077543845	0.33391402	0.12113039	0.017236995	-0.18051471	0.0088580557	-0.11774531	0.25488633	0.068385477	0.022551517	-0.0093222337	0.39840309	-0.18618593	0.3255872	0.49405792	0.11269702	-0.0092129417	0.37469295	-0.066538494	0.36690707	0.50736356	-0.00823667	0.079131688	0.78772601	-0.24054877	0.097502989	0.82796359	0.14407469	0.1453404	0.89659322	-0.17776405	0.15351413	0.91589139	0.063700749	-0.061823156	0.9201383	-0.033456606	0.12377287	1.3724049	-0.20630239	0.071650642	1.3662034	0.11208637	0.020520638	1.3987641	-0.0671902	0.15260734	1.0285449	-0.2921676	-0.070554202	1.051579	0.12333676	0.39007766	0.96234454	-0.23649296	-0.060826005	0.84304258	0.24927901
